STARTFONT 2.3
FONT -FontForge-Monofett-Book-R-Normal--9-90-72-72-P-48-ISO10646-1
SIZE 9 72 72  2
FONTBOUNDINGBOX 6 12 0 -2
COMMENT "Generated by fontforge, http://fontforge.sourceforge.net"
COMMENT "Copyright (c) 2011 by vernon adams. All rights reserved."
STARTPROPERTIES 41
FOUNDRY "FontForge"
FAMILY_NAME "Monofett"
WEIGHT_NAME "Book"
SLANT "R"
SETWIDTH_NAME "Normal"
ADD_STYLE_NAME ""
PIXEL_SIZE 9
POINT_SIZE 90
RESOLUTION_X 72
RESOLUTION_Y 72
SPACING "P"
AVERAGE_WIDTH 48
CHARSET_REGISTRY "ISO10646"
CHARSET_ENCODING "1"
FONTNAME_REGISTRY ""
CHARSET_COLLECTIONS "ISO8859-2 ISO8859-9 ISO8859-4 ISO10646-1"
BITS_PER_PIXEL 2
FONT_NAME "Monofett"
FACE_NAME "Monofett"
COPYRIGHT "Copyright (c) 2011 by vernon adams. All rights reserved."
FONT_VERSION "1.000"
FONT_ASCENT 7
FONT_DESCENT 2
UNDERLINE_POSITION -1
UNDERLINE_THICKNESS 1
X_HEIGHT 5
CAP_HEIGHT 5
RAW_ASCENT 799
RAW_DESCENT 200
NORM_SPACE 1
RELATIVE_WEIGHT 40
RELATIVE_SETWIDTH 50
SUPERSCRIPT_X 0
SUPERSCRIPT_Y 4
SUPERSCRIPT_SIZE 5
SUBSCRIPT_X 0
SUBSCRIPT_Y 1
SUBSCRIPT_SIZE 5
FIGURE_WIDTH 5
AVG_LOWERCASE_WIDTH 50
AVG_UPPERCASE_WIDTH 50
ENDPROPERTIES
CHARS 409
STARTCHAR uni000D
ENCODING 13
SWIDTH 144 0
DWIDTH 1 0
BBX 1 1 0 0
BITMAP
00
ENDCHAR
STARTCHAR space
ENCODING 32
SWIDTH 144 0
DWIDTH 1 0
BBX 1 1 0 0
BITMAP
00
ENDCHAR
STARTCHAR exclam
ENCODING 33
SWIDTH 424 0
DWIDTH 4 0
BBX 4 6 0 0
BITMAP
69
EA
EF
FF
FE
7D
ENDCHAR
STARTCHAR quotedbl
ENCODING 34
SWIDTH 424 0
DWIDTH 4 0
BBX 4 6 0 0
BITMAP
69
EA
FF
FF
FE
7D
ENDCHAR
STARTCHAR numbersign
ENCODING 35
SWIDTH 482 0
DWIDTH 4 0
BBX 5 6 0 0
BITMAP
7E00
D740
D740
E740
FF40
7E00
ENDCHAR
STARTCHAR dollar
ENCODING 36
SWIDTH 578 0
DWIDTH 5 0
BBX 6 6 0 0
BITMAP
7A80
EAD0
E5D0
E5D0
FBD0
7F80
ENDCHAR
STARTCHAR percent
ENCODING 37
SWIDTH 578 0
DWIDTH 5 0
BBX 6 6 0 0
BITMAP
6F80
97D0
FA90
F990
FFD0
7F80
ENDCHAR
STARTCHAR ampersand
ENCODING 38
SWIDTH 578 0
DWIDTH 5 0
BBX 6 6 0 0
BITMAP
6A80
EAD0
E9D0
E5D0
FFD0
7F80
ENDCHAR
STARTCHAR quotesingle
ENCODING 39
SWIDTH 424 0
DWIDTH 4 0
BBX 4 6 0 0
BITMAP
69
FE
FF
FF
FE
7D
ENDCHAR
STARTCHAR parenleft
ENCODING 40
SWIDTH 483 0
DWIDTH 4 0
BBX 5 6 0 0
BITMAP
6A00
EF40
EF40
EF40
EB40
7E00
ENDCHAR
STARTCHAR parenright
ENCODING 41
SWIDTH 483 0
DWIDTH 4 0
BBX 5 6 0 0
BITMAP
6A00
FB40
FB40
FB40
EB40
7E00
ENDCHAR
STARTCHAR asterisk
ENCODING 42
SWIDTH 428 0
DWIDTH 4 0
BBX 4 6 0 0
BITMAP
69
D6
EB
FF
FE
7D
ENDCHAR
STARTCHAR plus
ENCODING 43
SWIDTH 428 0
DWIDTH 4 0
BBX 4 6 0 0
BITMAP
69
D6
FF
FF
FE
7D
ENDCHAR
STARTCHAR comma
ENCODING 44
SWIDTH 428 0
DWIDTH 4 0
BBX 4 6 0 0
BITMAP
7D
FE
FF
EF
FE
7D
ENDCHAR
STARTCHAR hyphen
ENCODING 45
SWIDTH 428 0
DWIDTH 4 0
BBX 4 6 0 0
BITMAP
7D
EA
FF
FF
FE
7D
ENDCHAR
STARTCHAR period
ENCODING 46
SWIDTH 428 0
DWIDTH 4 0
BBX 4 6 0 0
BITMAP
7D
FE
FF
EF
FE
7D
ENDCHAR
STARTCHAR slash
ENCODING 47
SWIDTH 428 0
DWIDTH 4 0
BBX 4 6 0 0
BITMAP
79
EA
EF
EF
FE
7D
ENDCHAR
STARTCHAR zero
ENCODING 48
SWIDTH 578 0
DWIDTH 5 0
BBX 6 6 0 0
BITMAP
6980
EED0
EED0
E9D0
FFD0
7F80
ENDCHAR
STARTCHAR one
ENCODING 49
SWIDTH 578 0
DWIDTH 5 0
BBX 6 6 0 0
BITMAP
7780
FBD0
FBD0
FBD0
FFD0
7F80
ENDCHAR
STARTCHAR two
ENCODING 50
SWIDTH 578 0
DWIDTH 5 0
BBX 6 6 0 0
BITMAP
6980
FED0
EAD0
EAD0
FFD0
7F80
ENDCHAR
STARTCHAR three
ENCODING 51
SWIDTH 578 0
DWIDTH 5 0
BBX 6 6 0 0
BITMAP
6A80
FED0
F9D0
E9D0
FFD0
7F80
ENDCHAR
STARTCHAR four
ENCODING 52
SWIDTH 578 0
DWIDTH 5 0
BBX 6 6 0 0
BITMAP
6E80
EED0
E9D0
FDD0
FFD0
7F80
ENDCHAR
STARTCHAR five
ENCODING 53
SWIDTH 578 0
DWIDTH 5 0
BBX 6 6 0 0
BITMAP
6A80
EBD0
E9D0
E9D0
FFD0
7F80
ENDCHAR
STARTCHAR six
ENCODING 54
SWIDTH 578 0
DWIDTH 5 0
BBX 6 6 0 0
BITMAP
6680
EAD0
EA90
E9D0
FFD0
7F80
ENDCHAR
STARTCHAR seven
ENCODING 55
SWIDTH 578 0
DWIDTH 5 0
BBX 6 6 0 0
BITMAP
7A80
FED0
FBD0
F7D0
FFD0
7F80
ENDCHAR
STARTCHAR eight
ENCODING 56
SWIDTH 578 0
DWIDTH 5 0
BBX 6 6 0 0
BITMAP
6980
EED0
D9D0
E9D0
FFD0
7F80
ENDCHAR
STARTCHAR nine
ENCODING 57
SWIDTH 578 0
DWIDTH 5 0
BBX 6 6 0 0
BITMAP
6980
EED0
E9D0
E5D0
FFD0
7F80
ENDCHAR
STARTCHAR colon
ENCODING 58
SWIDTH 428 0
DWIDTH 4 0
BBX 4 6 0 0
BITMAP
7D
FE
EF
EF
FE
7D
ENDCHAR
STARTCHAR semicolon
ENCODING 59
SWIDTH 428 0
DWIDTH 4 0
BBX 4 6 0 0
BITMAP
7D
FE
EF
EF
FE
7D
ENDCHAR
STARTCHAR less
ENCODING 60
SWIDTH 482 0
DWIDTH 4 0
BBX 5 7 0 0
BITMAP
6900
FF40
FB40
EF40
FB40
BF00
1900
ENDCHAR
STARTCHAR equal
ENCODING 61
SWIDTH 482 0
DWIDTH 4 0
BBX 5 7 0 0
BITMAP
6900
FF40
FB40
EB40
FF40
BF00
1900
ENDCHAR
STARTCHAR greater
ENCODING 62
SWIDTH 482 0
DWIDTH 4 0
BBX 5 7 0 0
BITMAP
6900
FF40
FB40
FB40
FB40
BF00
1900
ENDCHAR
STARTCHAR question
ENCODING 63
SWIDTH 578 0
DWIDTH 5 0
BBX 6 6 0 0
BITMAP
6A80
FED0
FAD0
FBD0
FFD0
7F80
ENDCHAR
STARTCHAR at
ENCODING 64
SWIDTH 578 0
DWIDTH 5 0
BBX 6 6 0 0
BITMAP
6A80
AA90
A990
EA90
EBD0
7F80
ENDCHAR
STARTCHAR A
ENCODING 65
SWIDTH 578 0
DWIDTH 5 0
BBX 6 6 0 0
BITMAP
6A80
EED0
D9D0
DED0
FFD0
7F80
ENDCHAR
STARTCHAR B
ENCODING 66
SWIDTH 578 0
DWIDTH 5 0
BBX 6 6 0 0
BITMAP
6A80
EDD0
D9D0
D9D0
FFD0
7F80
ENDCHAR
STARTCHAR C
ENCODING 67
SWIDTH 578 0
DWIDTH 5 0
BBX 6 6 0 0
BITMAP
6A80
EFD0
EFD0
EAD0
FFD0
7F80
ENDCHAR
STARTCHAR D
ENCODING 68
SWIDTH 578 0
DWIDTH 5 0
BBX 6 6 0 0
BITMAP
6980
EE90
EE90
D9D0
FFD0
7F80
ENDCHAR
STARTCHAR E
ENCODING 69
SWIDTH 578 0
DWIDTH 5 0
BBX 6 6 0 0
BITMAP
6680
EBD0
E6D0
E6D0
FFD0
7F80
ENDCHAR
STARTCHAR F
ENCODING 70
SWIDTH 578 0
DWIDTH 5 0
BBX 6 6 0 0
BITMAP
6680
EBD0
EAD0
EBD0
FFD0
7F80
ENDCHAR
STARTCHAR G
ENCODING 71
SWIDTH 578 0
DWIDTH 5 0
BBX 6 6 0 0
BITMAP
6A80
EFD0
EDD0
E9D0
FFD0
7F80
ENDCHAR
STARTCHAR H
ENCODING 72
SWIDTH 578 0
DWIDTH 5 0
BBX 6 6 0 0
BITMAP
6E40
EE90
D990
EE90
FFD0
7F80
ENDCHAR
STARTCHAR I
ENCODING 73
SWIDTH 578 0
DWIDTH 5 0
BBX 6 6 0 0
BITMAP
6580
FBD0
FBD0
E6D0
FFD0
7F80
ENDCHAR
STARTCHAR J
ENCODING 74
SWIDTH 578 0
DWIDTH 5 0
BBX 6 6 0 0
BITMAP
7E80
FED0
FED0
FAD0
FFD0
7F80
ENDCHAR
STARTCHAR K
ENCODING 75
SWIDTH 578 0
DWIDTH 5 0
BBX 6 6 0 0
BITMAP
6E40
E6D0
E6D0
EAD0
FFD0
7F80
ENDCHAR
STARTCHAR L
ENCODING 76
SWIDTH 578 0
DWIDTH 5 0
BBX 6 6 0 0
BITMAP
7B80
FBD0
FBD0
F6D0
FFD0
7F80
ENDCHAR
STARTCHAR M
ENCODING 77
SWIDTH 578 0
DWIDTH 5 0
BBX 6 6 0 0
BITMAP
6940
EB90
EB90
EF90
FFD0
7F80
ENDCHAR
STARTCHAR N
ENCODING 78
SWIDTH 578 0
DWIDTH 5 0
BBX 6 6 0 0
BITMAP
6980
EED0
EED0
EED0
FFD0
7F80
ENDCHAR
STARTCHAR O
ENCODING 79
SWIDTH 578 0
DWIDTH 5 0
BBX 6 6 0 0
BITMAP
6980
EE90
EE90
E9D0
FFD0
7F80
ENDCHAR
STARTCHAR P
ENCODING 80
SWIDTH 578 0
DWIDTH 5 0
BBX 6 6 0 0
BITMAP
6980
EED0
E5D0
EFD0
FFD0
7F80
ENDCHAR
STARTCHAR Q
ENCODING 81
SWIDTH 578 0
DWIDTH 5 0
BBX 6 6 0 0
BITMAP
6980
EE90
EE90
E5D0
FED0
7F80
ENDCHAR
STARTCHAR R
ENCODING 82
SWIDTH 578 0
DWIDTH 5 0
BBX 6 6 0 0
BITMAP
6A80
EED0
E9D0
EED0
FFD0
7F80
ENDCHAR
STARTCHAR S
ENCODING 83
SWIDTH 578 0
DWIDTH 5 0
BBX 6 6 0 0
BITMAP
6A80
EFD0
F9D0
F9D0
FFD0
7F80
ENDCHAR
STARTCHAR T
ENCODING 84
SWIDTH 578 0
DWIDTH 5 0
BBX 6 6 0 0
BITMAP
6580
FBD0
FBD0
FBD0
FFD0
7F80
ENDCHAR
STARTCHAR U
ENCODING 85
SWIDTH 578 0
DWIDTH 5 0
BBX 6 6 0 0
BITMAP
6E40
EED0
EED0
E9D0
FFD0
7F80
ENDCHAR
STARTCHAR V
ENCODING 86
SWIDTH 578 0
DWIDTH 5 0
BBX 6 6 0 0
BITMAP
6E80
EDD0
F9D0
F6D0
FFD0
7F80
ENDCHAR
STARTCHAR W
ENCODING 87
SWIDTH 578 0
DWIDTH 5 0
BBX 6 6 0 0
BITMAP
6B40
E690
E590
D9D0
FFD0
7F80
ENDCHAR
STARTCHAR X
ENCODING 88
SWIDTH 578 0
DWIDTH 5 0
BBX 6 6 0 0
BITMAP
6E80
F9D0
F6D0
EAD0
FFD0
7F80
ENDCHAR
STARTCHAR Y
ENCODING 89
SWIDTH 578 0
DWIDTH 5 0
BBX 6 6 0 0
BITMAP
6E80
F9D0
F6D0
FBD0
FFD0
7F80
ENDCHAR
STARTCHAR Z
ENCODING 90
SWIDTH 578 0
DWIDTH 5 0
BBX 6 6 0 0
BITMAP
6A80
FED0
F7D0
E6D0
FFD0
7F80
ENDCHAR
STARTCHAR bracketleft
ENCODING 91
SWIDTH 484 0
DWIDTH 4 0
BBX 5 6 0 0
BITMAP
6A00
FB40
FB40
FB40
FB40
7E00
ENDCHAR
STARTCHAR backslash
ENCODING 92
SWIDTH 516 0
DWIDTH 5 0
BBX 5 6 0 0
BITMAP
7B40
FB80
FB80
FB80
FF80
7F40
ENDCHAR
STARTCHAR bracketright
ENCODING 93
SWIDTH 484 0
DWIDTH 4 0
BBX 5 6 0 0
BITMAP
6A00
FB40
FB40
FB40
FB40
7E00
ENDCHAR
STARTCHAR asciicircum
ENCODING 94
SWIDTH 355 0
DWIDTH 3 0
BBX 3 4 0 2
BITMAP
10
68
EC
A8
ENDCHAR
STARTCHAR underscore
ENCODING 95
SWIDTH 428 0
DWIDTH 4 0
BBX 4 6 0 0
BITMAP
7D
FE
FF
FF
EA
7D
ENDCHAR
STARTCHAR grave
ENCODING 96
SWIDTH 308 0
DWIDTH 3 0
BBX 3 3 0 0
BITMAP
B4
A8
78
ENDCHAR
STARTCHAR a
ENCODING 97
SWIDTH 578 0
DWIDTH 5 0
BBX 6 6 0 0
BITMAP
6A80
FED0
E9D0
E9D0
FFD0
7F80
ENDCHAR
STARTCHAR b
ENCODING 98
SWIDTH 578 0
DWIDTH 5 0
BBX 6 6 0 0
BITMAP
6A80
EDD0
D9D0
D9D0
FFD0
7F80
ENDCHAR
STARTCHAR c
ENCODING 99
SWIDTH 578 0
DWIDTH 5 0
BBX 6 6 0 0
BITMAP
6A80
EFD0
EFD0
EAD0
FFD0
7F80
ENDCHAR
STARTCHAR d
ENCODING 100
SWIDTH 578 0
DWIDTH 5 0
BBX 6 6 0 0
BITMAP
6980
EE90
EE90
D9D0
FFD0
7F80
ENDCHAR
STARTCHAR e
ENCODING 101
SWIDTH 578 0
DWIDTH 5 0
BBX 6 6 0 0
BITMAP
6A80
D9D0
DBD0
EAD0
FFD0
7F80
ENDCHAR
STARTCHAR f
ENCODING 102
SWIDTH 578 0
DWIDTH 5 0
BBX 6 6 0 0
BITMAP
6680
EBD0
EAD0
EBD0
FFD0
7F80
ENDCHAR
STARTCHAR g
ENCODING 103
SWIDTH 578 0
DWIDTH 5 0
BBX 6 6 0 0
BITMAP
6A80
EFD0
EDD0
E9D0
FFD0
7F80
ENDCHAR
STARTCHAR h
ENCODING 104
SWIDTH 578 0
DWIDTH 5 0
BBX 6 6 0 0
BITMAP
6E40
EE90
D990
EE90
FFD0
7F80
ENDCHAR
STARTCHAR i
ENCODING 105
SWIDTH 578 0
DWIDTH 5 0
BBX 6 6 0 0
BITMAP
6580
FBD0
FBD0
E6D0
FFD0
7F80
ENDCHAR
STARTCHAR j
ENCODING 106
SWIDTH 578 0
DWIDTH 5 0
BBX 6 6 0 0
BITMAP
7E80
FED0
FED0
FAD0
FFD0
7F80
ENDCHAR
STARTCHAR k
ENCODING 107
SWIDTH 578 0
DWIDTH 5 0
BBX 6 6 0 0
BITMAP
6E40
E6D0
E6D0
EAD0
FFD0
7F80
ENDCHAR
STARTCHAR l
ENCODING 108
SWIDTH 578 0
DWIDTH 5 0
BBX 6 6 0 0
BITMAP
7B80
FBD0
FBD0
F6D0
FFD0
7F80
ENDCHAR
STARTCHAR m
ENCODING 109
SWIDTH 578 0
DWIDTH 5 0
BBX 6 6 0 0
BITMAP
6940
EB90
EB90
EF90
FFD0
7F80
ENDCHAR
STARTCHAR n
ENCODING 110
SWIDTH 578 0
DWIDTH 5 0
BBX 6 6 0 0
BITMAP
6980
EED0
EED0
EED0
FFD0
7F80
ENDCHAR
STARTCHAR o
ENCODING 111
SWIDTH 578 0
DWIDTH 5 0
BBX 6 6 0 0
BITMAP
6980
EE90
EE90
E9D0
FFD0
7F80
ENDCHAR
STARTCHAR p
ENCODING 112
SWIDTH 578 0
DWIDTH 5 0
BBX 6 6 0 0
BITMAP
6980
EED0
E5D0
EFD0
FFD0
7F80
ENDCHAR
STARTCHAR q
ENCODING 113
SWIDTH 578 0
DWIDTH 5 0
BBX 6 6 0 0
BITMAP
6980
EE90
EE90
E5D0
FED0
7F80
ENDCHAR
STARTCHAR r
ENCODING 114
SWIDTH 578 0
DWIDTH 5 0
BBX 6 6 0 0
BITMAP
6A80
EED0
E9D0
EED0
FFD0
7F80
ENDCHAR
STARTCHAR s
ENCODING 115
SWIDTH 578 0
DWIDTH 5 0
BBX 6 6 0 0
BITMAP
6A80
EFD0
F9D0
F9D0
FFD0
7F80
ENDCHAR
STARTCHAR t
ENCODING 116
SWIDTH 578 0
DWIDTH 5 0
BBX 6 6 0 0
BITMAP
6580
FBD0
FBD0
FBD0
FFD0
7F80
ENDCHAR
STARTCHAR u
ENCODING 117
SWIDTH 578 0
DWIDTH 5 0
BBX 6 6 0 0
BITMAP
6E40
EED0
EED0
E9D0
FFD0
7F80
ENDCHAR
STARTCHAR v
ENCODING 118
SWIDTH 578 0
DWIDTH 5 0
BBX 6 6 0 0
BITMAP
6E80
EDD0
F9D0
F6D0
FFD0
7F80
ENDCHAR
STARTCHAR w
ENCODING 119
SWIDTH 578 0
DWIDTH 5 0
BBX 6 6 0 0
BITMAP
6B40
E690
E590
D9D0
FFD0
7F80
ENDCHAR
STARTCHAR x
ENCODING 120
SWIDTH 578 0
DWIDTH 5 0
BBX 6 6 0 0
BITMAP
6E80
F9D0
F6D0
EAD0
FFD0
7F80
ENDCHAR
STARTCHAR y
ENCODING 121
SWIDTH 578 0
DWIDTH 5 0
BBX 6 6 0 0
BITMAP
6E80
F9D0
F6D0
FBD0
FFD0
7F80
ENDCHAR
STARTCHAR z
ENCODING 122
SWIDTH 578 0
DWIDTH 5 0
BBX 6 6 0 0
BITMAP
6A80
FED0
F7D0
E6D0
FFD0
7F80
ENDCHAR
STARTCHAR braceleft
ENCODING 123
SWIDTH 484 0
DWIDTH 4 0
BBX 5 6 0 0
BITMAP
6A00
EF40
DF40
EF40
FB40
7E00
ENDCHAR
STARTCHAR bar
ENCODING 124
SWIDTH 484 0
DWIDTH 4 0
BBX 5 6 0 0
BITMAP
7A00
FB40
FB40
FB40
FF40
7E00
ENDCHAR
STARTCHAR braceright
ENCODING 125
SWIDTH 484 0
DWIDTH 4 0
BBX 5 6 0 0
BITMAP
6A00
FB40
F640
FB40
EB40
7E00
ENDCHAR
STARTCHAR asciitilde
ENCODING 126
SWIDTH 578 0
DWIDTH 5 0
BBX 6 6 0 0
BITMAP
7F80
EAD0
FFD0
FFD0
FFD0
7F80
ENDCHAR
STARTCHAR uni00A0
ENCODING 160
SWIDTH 151 0
DWIDTH 1 0
BBX 1 1 0 0
BITMAP
00
ENDCHAR
STARTCHAR exclamdown
ENCODING 161
SWIDTH 424 0
DWIDTH 4 0
BBX 4 6 0 0
BITMAP
69
FE
EF
EF
FE
7D
ENDCHAR
STARTCHAR cent
ENCODING 162
SWIDTH 578 0
DWIDTH 5 0
BBX 6 6 0 0
BITMAP
7B80
E6D0
EBD0
E6D0
FBD0
7F80
ENDCHAR
STARTCHAR sterling
ENCODING 163
SWIDTH 578 0
DWIDTH 5 0
BBX 6 6 0 0
BITMAP
7A80
FAD0
E7D0
F6D0
FFD0
7F80
ENDCHAR
STARTCHAR currency
ENCODING 164
SWIDTH 578 0
DWIDTH 5 0
BBX 6 6 0 0
BITMAP
6A80
EAD0
E9D0
FFD0
FFD0
7F80
ENDCHAR
STARTCHAR yen
ENCODING 165
SWIDTH 578 0
DWIDTH 5 0
BBX 6 6 0 0
BITMAP
6E80
EAD0
F2D0
F6D0
FFD0
7F80
ENDCHAR
STARTCHAR brokenbar
ENCODING 166
SWIDTH 484 0
DWIDTH 4 0
BBX 5 6 0 0
BITMAP
7A00
FB40
FB40
FB40
FF40
7E00
ENDCHAR
STARTCHAR section
ENCODING 167
SWIDTH 578 0
DWIDTH 5 0
BBX 6 6 0 0
BITMAP
6A80
EBD0
FAD0
FED0
EAD0
7F80
ENDCHAR
STARTCHAR dieresis
ENCODING 168
SWIDTH 388 0
DWIDTH 4 0
BBX 4 3 0 0
BITMAP
64
E9
A9
ENDCHAR
STARTCHAR copyright
ENCODING 169
SWIDTH 578 0
DWIDTH 5 0
BBX 6 6 0 0
BITMAP
6A80
EA90
BB90
EA90
FAD0
7F80
ENDCHAR
STARTCHAR ordfeminine
ENCODING 170
SWIDTH 578 0
DWIDTH 5 0
BBX 6 6 0 0
BITMAP
7A80
F9D0
E9D0
FAD0
FFD0
7F80
ENDCHAR
STARTCHAR guillemotleft
ENCODING 171
SWIDTH 578 0
DWIDTH 5 0
BBX 6 6 0 0
BITMAP
7F80
FAD0
EBD0
FAD0
FFD0
7F80
ENDCHAR
STARTCHAR uni00AD
ENCODING 173
SWIDTH 428 0
DWIDTH 4 0
BBX 4 6 0 0
BITMAP
7D
EA
FF
FF
FE
7D
ENDCHAR
STARTCHAR registered
ENCODING 174
SWIDTH 578 0
DWIDTH 5 0
BBX 6 6 0 0
BITMAP
6A80
EA90
BA90
EE90
FAD0
7F80
ENDCHAR
STARTCHAR macron
ENCODING 175
SWIDTH 428 0
DWIDTH 4 0
BBX 4 3 0 0
BITMAP
68
EA
BE
ENDCHAR
STARTCHAR degree
ENCODING 176
SWIDTH 428 0
DWIDTH 4 0
BBX 4 6 0 0
BITMAP
69
EA
FF
FF
FE
7D
ENDCHAR
STARTCHAR plusminus
ENCODING 177
SWIDTH 428 0
DWIDTH 4 0
BBX 4 6 0 0
BITMAP
69
D6
EB
EB
FE
7D
ENDCHAR
STARTCHAR uni00B2
ENCODING 178
SWIDTH 578 0
DWIDTH 5 0
BBX 6 6 0 0
BITMAP
7A80
F6D0
F6D0
FFD0
FFD0
7F80
ENDCHAR
STARTCHAR uni00B3
ENCODING 179
SWIDTH 578 0
DWIDTH 5 0
BBX 6 6 0 0
BITMAP
7A80
F9D0
F6D0
FFD0
FFD0
7F80
ENDCHAR
STARTCHAR acute
ENCODING 180
SWIDTH 308 0
DWIDTH 3 0
BBX 3 3 0 0
BITMAP
78
E8
A0
ENDCHAR
STARTCHAR uni00B5
ENCODING 181
SWIDTH 578 0
DWIDTH 5 0
BBX 6 6 0 0
BITMAP
6E80
EED0
EED0
D9D0
EFD0
7F80
ENDCHAR
STARTCHAR paragraph
ENCODING 182
SWIDTH 578 0
DWIDTH 5 0
BBX 6 6 0 0
BITMAP
6680
D2D0
FAD0
FAD0
FFD0
7F80
ENDCHAR
STARTCHAR periodcentered
ENCODING 183
SWIDTH 428 0
DWIDTH 4 0
BBX 4 6 0 0
BITMAP
7D
EE
FF
FF
FE
7D
ENDCHAR
STARTCHAR cedilla
ENCODING 184
SWIDTH 101 0
DWIDTH 1 0
BBX 1 2 0 -2
BITMAP
80
40
ENDCHAR
STARTCHAR uni00B9
ENCODING 185
SWIDTH 578 0
DWIDTH 5 0
BBX 6 6 0 0
BITMAP
7780
FBD0
FBD0
FFD0
FFD0
7F80
ENDCHAR
STARTCHAR ordmasculine
ENCODING 186
SWIDTH 578 0
DWIDTH 5 0
BBX 6 6 0 0
BITMAP
6980
EED0
EED0
FAD0
FFD0
7F80
ENDCHAR
STARTCHAR guillemotright
ENCODING 187
SWIDTH 578 0
DWIDTH 5 0
BBX 6 6 0 0
BITMAP
7F80
EAD0
FAD0
EAD0
FFD0
7F80
ENDCHAR
STARTCHAR onequarter
ENCODING 188
SWIDTH 578 0
DWIDTH 5 0
BBX 6 6 0 0
BITMAP
6B80
EBD0
E690
E950
FF90
7F80
ENDCHAR
STARTCHAR onehalf
ENCODING 189
SWIDTH 578 0
DWIDTH 5 0
BBX 6 6 0 0
BITMAP
6B80
EA90
E550
E990
FFD0
7F80
ENDCHAR
STARTCHAR threequarters
ENCODING 190
SWIDTH 578 0
DWIDTH 5 0
BBX 6 6 0 0
BITMAP
6B80
EA90
E650
E950
FFD0
7F80
ENDCHAR
STARTCHAR questiondown
ENCODING 191
SWIDTH 578 0
DWIDTH 5 0
BBX 6 6 0 0
BITMAP
7F80
FBD0
EBD0
EAD0
FFD0
7F80
ENDCHAR
STARTCHAR Agrave
ENCODING 192
SWIDTH 578 0
DWIDTH 5 0
BBX 6 9 0 0
BITMAP
3C00
3900
1D00
6A80
EED0
D9D0
DED0
FFD0
7F80
ENDCHAR
STARTCHAR Aacute
ENCODING 193
SWIDTH 578 0
DWIDTH 5 0
BBX 6 9 0 0
BITMAP
0B40
1B40
1E00
6A80
EED0
D9D0
DED0
FFD0
7F80
ENDCHAR
STARTCHAR Acircumflex
ENCODING 194
SWIDTH 578 0
DWIDTH 5 0
BBX 6 9 0 0
BITMAP
1A00
2A00
2A40
6A80
EED0
D9D0
DED0
FFD0
7F80
ENDCHAR
STARTCHAR Atilde
ENCODING 195
SWIDTH 578 0
DWIDTH 5 0
BBX 6 9 0 0
BITMAP
1E00
3F80
2A40
6A80
EED0
D9D0
DED0
FFD0
7F80
ENDCHAR
STARTCHAR Adieresis
ENCODING 196
SWIDTH 578 0
DWIDTH 5 0
BBX 6 9 0 0
BITMAP
1900
3A40
2A40
6A80
EED0
D9D0
DED0
FFD0
7F80
ENDCHAR
STARTCHAR Aring
ENCODING 197
SWIDTH 578 0
DWIDTH 5 0
BBX 6 9 0 0
BITMAP
1A00
3640
2B40
6A80
EED0
D9D0
DED0
FFD0
7F80
ENDCHAR
STARTCHAR AE
ENCODING 198
SWIDTH 578 0
DWIDTH 5 0
BBX 6 6 0 0
BITMAP
6580
EBD0
E6D0
D6D0
FFD0
7F80
ENDCHAR
STARTCHAR Ccedilla
ENCODING 199
SWIDTH 578 0
DWIDTH 5 0
BBX 6 6 0 0
BITMAP
6A80
EFD0
EFD0
EAD0
F7D0
7B80
ENDCHAR
STARTCHAR Egrave
ENCODING 200
SWIDTH 578 0
DWIDTH 5 0
BBX 6 9 0 0
BITMAP
2D00
3A00
1E00
6680
EBD0
E6D0
E6D0
FFD0
7F80
ENDCHAR
STARTCHAR Eacute
ENCODING 201
SWIDTH 578 0
DWIDTH 5 0
BBX 6 9 0 0
BITMAP
0B40
0A40
0E00
6680
EBD0
E6D0
E6D0
FFD0
7F80
ENDCHAR
STARTCHAR Ecircumflex
ENCODING 202
SWIDTH 578 0
DWIDTH 5 0
BBX 6 9 0 0
BITMAP
1E00
2A40
2A40
6680
EBD0
E6D0
E6D0
FFD0
7F80
ENDCHAR
STARTCHAR Edieresis
ENCODING 203
SWIDTH 578 0
DWIDTH 5 0
BBX 6 9 0 0
BITMAP
0900
2A80
2A40
6680
EBD0
E6D0
E6D0
FFD0
7F80
ENDCHAR
STARTCHAR Igrave
ENCODING 204
SWIDTH 578 0
DWIDTH 5 0
BBX 6 9 0 0
BITMAP
2D00
2A00
1E00
6580
FBD0
FBD0
E6D0
FFD0
7F80
ENDCHAR
STARTCHAR Iacute
ENCODING 205
SWIDTH 578 0
DWIDTH 5 0
BBX 6 9 0 0
BITMAP
0B40
0A40
0E00
6580
FBD0
FBD0
E6D0
FFD0
7F80
ENDCHAR
STARTCHAR Icircumflex
ENCODING 206
SWIDTH 578 0
DWIDTH 5 0
BBX 6 9 0 0
BITMAP
1E00
2A40
2A40
6580
FBD0
FBD0
E6D0
FFD0
7F80
ENDCHAR
STARTCHAR Idieresis
ENCODING 207
SWIDTH 578 0
DWIDTH 5 0
BBX 6 9 0 0
BITMAP
0900
2A80
2A40
6580
FBD0
FBD0
E6D0
FFD0
7F80
ENDCHAR
STARTCHAR Eth
ENCODING 208
SWIDTH 578 0
DWIDTH 5 0
BBX 6 6 0 0
BITMAP
6980
EE90
DE90
D9D0
FFD0
7F80
ENDCHAR
STARTCHAR Ntilde
ENCODING 209
SWIDTH 578 0
DWIDTH 5 0
BBX 6 9 0 0
BITMAP
2E00
7F80
2A40
6980
EED0
EED0
EED0
FFD0
7F80
ENDCHAR
STARTCHAR Ograve
ENCODING 210
SWIDTH 578 0
DWIDTH 5 0
BBX 6 9 0 0
BITMAP
2D00
3A00
1E00
6980
EE90
EE90
E9D0
FFD0
7F80
ENDCHAR
STARTCHAR Oacute
ENCODING 211
SWIDTH 578 0
DWIDTH 5 0
BBX 6 9 0 0
BITMAP
0B40
1A40
1E00
6980
EE90
EE90
E9D0
FFD0
7F80
ENDCHAR
STARTCHAR Ocircumflex
ENCODING 212
SWIDTH 578 0
DWIDTH 5 0
BBX 6 9 0 0
BITMAP
1E00
2A40
2A40
6980
EE90
EE90
E9D0
FFD0
7F80
ENDCHAR
STARTCHAR Otilde
ENCODING 213
SWIDTH 578 0
DWIDTH 5 0
BBX 6 9 0 0
BITMAP
1A00
3F80
2A80
6980
EE90
EE90
E9D0
FFD0
7F80
ENDCHAR
STARTCHAR Odieresis
ENCODING 214
SWIDTH 578 0
DWIDTH 5 0
BBX 6 9 0 0
BITMAP
0900
2A40
2A40
6980
EE90
EE90
E9D0
FFD0
7F80
ENDCHAR
STARTCHAR multiply
ENCODING 215
SWIDTH 578 0
DWIDTH 5 0
BBX 6 6 0 0
BITMAP
7F80
FAD0
F6D0
FFD0
FFD0
7F80
ENDCHAR
STARTCHAR Oslash
ENCODING 216
SWIDTH 578 0
DWIDTH 5 0
BBX 6 6 0 0
BITMAP
6980
EDD0
EAD0
D5D0
FFD0
7F80
ENDCHAR
STARTCHAR Ugrave
ENCODING 217
SWIDTH 578 0
DWIDTH 5 0
BBX 6 9 0 0
BITMAP
2D00
3A00
1E00
6E40
EED0
EED0
E9D0
FFD0
7F80
ENDCHAR
STARTCHAR Uacute
ENCODING 218
SWIDTH 578 0
DWIDTH 5 0
BBX 6 9 0 0
BITMAP
0B40
0A40
0E00
6E40
EED0
EED0
E9D0
FFD0
7F80
ENDCHAR
STARTCHAR Ucircumflex
ENCODING 219
SWIDTH 578 0
DWIDTH 5 0
BBX 6 9 0 0
BITMAP
1E00
2A40
2A40
6E40
EED0
EED0
E9D0
FFD0
7F80
ENDCHAR
STARTCHAR Udieresis
ENCODING 220
SWIDTH 578 0
DWIDTH 5 0
BBX 6 9 0 0
BITMAP
0900
2A80
2A40
6E40
EED0
EED0
E9D0
FFD0
7F80
ENDCHAR
STARTCHAR Yacute
ENCODING 221
SWIDTH 578 0
DWIDTH 5 0
BBX 6 9 0 0
BITMAP
0B40
1A40
1E00
6E80
F9D0
F6D0
FBD0
FFD0
7F80
ENDCHAR
STARTCHAR Thorn
ENCODING 222
SWIDTH 578 0
DWIDTH 5 0
BBX 6 6 0 0
BITMAP
6F80
E5D0
E5D0
EFD0
FFD0
7F80
ENDCHAR
STARTCHAR germandbls
ENCODING 223
SWIDTH 578 0
DWIDTH 5 0
BBX 6 6 0 0
BITMAP
6A80
EDD0
EED0
E9D0
FFD0
7F80
ENDCHAR
STARTCHAR agrave
ENCODING 224
SWIDTH 578 0
DWIDTH 5 0
BBX 6 9 0 0
BITMAP
2D00
3A00
1E00
6A80
FED0
E9D0
E9D0
FFD0
7F80
ENDCHAR
STARTCHAR aacute
ENCODING 225
SWIDTH 578 0
DWIDTH 5 0
BBX 6 9 0 0
BITMAP
0B40
1A40
1E00
6A80
FED0
E9D0
E9D0
FFD0
7F80
ENDCHAR
STARTCHAR acircumflex
ENCODING 226
SWIDTH 578 0
DWIDTH 5 0
BBX 6 9 0 0
BITMAP
1E00
2A40
2A40
6A80
FED0
E9D0
E9D0
FFD0
7F80
ENDCHAR
STARTCHAR atilde
ENCODING 227
SWIDTH 578 0
DWIDTH 5 0
BBX 6 9 0 0
BITMAP
1A00
3F80
2A80
6A80
FED0
E9D0
E9D0
FFD0
7F80
ENDCHAR
STARTCHAR adieresis
ENCODING 228
SWIDTH 578 0
DWIDTH 5 0
BBX 6 9 0 0
BITMAP
0900
2A80
2A40
6A80
FED0
E9D0
E9D0
FFD0
7F80
ENDCHAR
STARTCHAR aring
ENCODING 229
SWIDTH 578 0
DWIDTH 5 0
BBX 6 9 0 0
BITMAP
1A00
2640
2B40
6A80
FED0
E9D0
E9D0
FFD0
7F80
ENDCHAR
STARTCHAR ae
ENCODING 230
SWIDTH 578 0
DWIDTH 5 0
BBX 6 6 0 0
BITMAP
6580
EBD0
E6D0
D6D0
FFD0
7F80
ENDCHAR
STARTCHAR ccedilla
ENCODING 231
SWIDTH 578 0
DWIDTH 5 0
BBX 6 6 0 0
BITMAP
6A80
EFD0
EFD0
EAD0
F7D0
7B80
ENDCHAR
STARTCHAR egrave
ENCODING 232
SWIDTH 578 0
DWIDTH 5 0
BBX 6 9 0 0
BITMAP
2D00
3A00
1D00
6A80
D9D0
DBD0
EAD0
FFD0
7F80
ENDCHAR
STARTCHAR eacute
ENCODING 233
SWIDTH 578 0
DWIDTH 5 0
BBX 6 9 0 0
BITMAP
0F40
1B00
1E00
6A80
D9D0
DBD0
EAD0
FFD0
7F80
ENDCHAR
STARTCHAR ecircumflex
ENCODING 234
SWIDTH 578 0
DWIDTH 5 0
BBX 6 10 0 0
BITMAP
0400
1A00
2B00
2A00
6A80
D9D0
DBD0
EAD0
FFD0
7F80
ENDCHAR
STARTCHAR edieresis
ENCODING 235
SWIDTH 578 0
DWIDTH 5 0
BBX 6 9 0 0
BITMAP
1900
3A40
2A00
6A80
D9D0
DBD0
EAD0
FFD0
7F80
ENDCHAR
STARTCHAR igrave
ENCODING 236
SWIDTH 578 0
DWIDTH 5 0
BBX 6 9 0 0
BITMAP
2D00
3A00
1E00
6580
FBD0
FBD0
E6D0
FFD0
7F80
ENDCHAR
STARTCHAR iacute
ENCODING 237
SWIDTH 578 0
DWIDTH 5 0
BBX 6 9 0 0
BITMAP
0B40
0A40
0E00
6580
FBD0
FBD0
E6D0
FFD0
7F80
ENDCHAR
STARTCHAR icircumflex
ENCODING 238
SWIDTH 578 0
DWIDTH 5 0
BBX 6 9 0 0
BITMAP
1E00
2A40
2A40
6580
FBD0
FBD0
E6D0
FFD0
7F80
ENDCHAR
STARTCHAR idieresis
ENCODING 239
SWIDTH 578 0
DWIDTH 5 0
BBX 6 9 0 0
BITMAP
0900
2A80
2A40
6580
FBD0
FBD0
E6D0
FFD0
7F80
ENDCHAR
STARTCHAR eth
ENCODING 240
SWIDTH 578 0
DWIDTH 5 0
BBX 6 6 0 0
BITMAP
6980
EE90
DE90
D9D0
FFD0
7F80
ENDCHAR
STARTCHAR ntilde
ENCODING 241
SWIDTH 578 0
DWIDTH 5 0
BBX 6 9 0 0
BITMAP
2E00
7F80
2A40
6980
EED0
EED0
EED0
FFD0
7F80
ENDCHAR
STARTCHAR oacute
ENCODING 243
SWIDTH 578 0
DWIDTH 5 0
BBX 6 9 0 0
BITMAP
0B40
1B40
1E00
6980
EE90
EE90
E9D0
FFD0
7F80
ENDCHAR
STARTCHAR ocircumflex
ENCODING 244
SWIDTH 578 0
DWIDTH 5 0
BBX 6 9 0 0
BITMAP
1E00
2A40
2A40
6980
EE90
EE90
E9D0
FFD0
7F80
ENDCHAR
STARTCHAR otilde
ENCODING 245
SWIDTH 578 0
DWIDTH 5 0
BBX 6 9 0 0
BITMAP
1E00
3F80
2A40
6980
EE90
EE90
E9D0
FFD0
7F80
ENDCHAR
STARTCHAR odieresis
ENCODING 246
SWIDTH 578 0
DWIDTH 5 0
BBX 6 9 0 0
BITMAP
0900
2A80
2A40
6980
EE90
EE90
E9D0
FFD0
7F80
ENDCHAR
STARTCHAR divide
ENCODING 247
SWIDTH 428 0
DWIDTH 4 0
BBX 4 6 0 0
BITMAP
7D
DA
EF
FF
FE
7D
ENDCHAR
STARTCHAR oslash
ENCODING 248
SWIDTH 578 0
DWIDTH 5 0
BBX 6 6 0 0
BITMAP
6980
EDD0
EAD0
D5D0
FFD0
7F80
ENDCHAR
STARTCHAR ugrave
ENCODING 249
SWIDTH 578 0
DWIDTH 5 0
BBX 6 9 0 0
BITMAP
2D00
3A00
1E00
6E40
EED0
EED0
E9D0
FFD0
7F80
ENDCHAR
STARTCHAR uacute
ENCODING 250
SWIDTH 578 0
DWIDTH 5 0
BBX 6 9 0 0
BITMAP
0B40
0A40
0E00
6E40
EED0
EED0
E9D0
FFD0
7F80
ENDCHAR
STARTCHAR ucircumflex
ENCODING 251
SWIDTH 578 0
DWIDTH 5 0
BBX 6 9 0 0
BITMAP
1E00
2A40
2A40
6E40
EED0
EED0
E9D0
FFD0
7F80
ENDCHAR
STARTCHAR udieresis
ENCODING 252
SWIDTH 578 0
DWIDTH 5 0
BBX 6 9 0 0
BITMAP
0900
2A80
2A40
6E40
EED0
EED0
E9D0
FFD0
7F80
ENDCHAR
STARTCHAR yacute
ENCODING 253
SWIDTH 578 0
DWIDTH 5 0
BBX 6 9 0 0
BITMAP
0B40
1A40
1E00
6E80
F9D0
F6D0
FBD0
FFD0
7F80
ENDCHAR
STARTCHAR thorn
ENCODING 254
SWIDTH 578 0
DWIDTH 5 0
BBX 6 6 0 0
BITMAP
6F80
E5D0
E5D0
EFD0
FFD0
7F80
ENDCHAR
STARTCHAR ydieresis
ENCODING 255
SWIDTH 578 0
DWIDTH 5 0
BBX 6 9 0 0
BITMAP
0900
2A40
2A40
6E80
F9D0
F6D0
FBD0
FFD0
7F80
ENDCHAR
STARTCHAR Amacron
ENCODING 256
SWIDTH 578 0
DWIDTH 5 0
BBX 6 9 0 0
BITMAP
1900
3A80
3F40
6A80
EED0
D9D0
DED0
FFD0
7F80
ENDCHAR
STARTCHAR amacron
ENCODING 257
SWIDTH 578 0
DWIDTH 5 0
BBX 6 9 0 0
BITMAP
1A00
3A80
2F40
6A80
FED0
E9D0
E9D0
FFD0
7F80
ENDCHAR
STARTCHAR Abreve
ENCODING 258
SWIDTH 578 0
DWIDTH 5 0
BBX 6 9 0 0
BITMAP
1900
3F80
3B40
6A80
EED0
D9D0
DED0
FFD0
7F80
ENDCHAR
STARTCHAR abreve
ENCODING 259
SWIDTH 578 0
DWIDTH 5 0
BBX 6 9 0 0
BITMAP
1A00
3F80
2A40
6A80
FED0
E9D0
E9D0
FFD0
7F80
ENDCHAR
STARTCHAR Aogonek
ENCODING 260
SWIDTH 578 0
DWIDTH 5 0
BBX 6 6 0 0
BITMAP
6A80
EED0
D9D0
DED0
FED0
7E80
ENDCHAR
STARTCHAR aogonek
ENCODING 261
SWIDTH 578 0
DWIDTH 5 0
BBX 6 6 0 0
BITMAP
6A80
FED0
E9D0
E9D0
FBD0
7B80
ENDCHAR
STARTCHAR Cacute
ENCODING 262
SWIDTH 578 0
DWIDTH 5 0
BBX 6 9 0 0
BITMAP
0B40
0A40
0E00
6A80
EFD0
EFD0
EAD0
FFD0
7F80
ENDCHAR
STARTCHAR cacute
ENCODING 263
SWIDTH 578 0
DWIDTH 5 0
BBX 6 9 0 0
BITMAP
0B40
0A40
0E00
6A80
EFD0
EFD0
EAD0
FFD0
7F80
ENDCHAR
STARTCHAR Ccircumflex
ENCODING 264
SWIDTH 578 0
DWIDTH 5 0
BBX 6 9 0 0
BITMAP
1A00
2A40
2A40
6A80
EFD0
EFD0
EAD0
FFD0
7F80
ENDCHAR
STARTCHAR ccircumflex
ENCODING 265
SWIDTH 578 0
DWIDTH 5 0
BBX 6 9 0 0
BITMAP
1A00
2A00
2A40
6A80
EFD0
EFD0
EAD0
FFD0
7F80
ENDCHAR
STARTCHAR Cdotaccent
ENCODING 266
SWIDTH 578 0
DWIDTH 5 0
BBX 6 9 0 0
BITMAP
1900
7B40
7F40
6A80
EFD0
EFD0
EAD0
FFD0
7F80
ENDCHAR
STARTCHAR cdotaccent
ENCODING 267
SWIDTH 578 0
DWIDTH 5 0
BBX 6 9 0 0
BITMAP
1900
7B40
3F40
6A80
EFD0
EFD0
EAD0
FFD0
7F80
ENDCHAR
STARTCHAR Ccaron
ENCODING 268
SWIDTH 578 0
DWIDTH 5 0
BBX 6 9 0 0
BITMAP
2A00
3700
2A00
6A80
EFD0
EFD0
EAD0
FFD0
7F80
ENDCHAR
STARTCHAR ccaron
ENCODING 269
SWIDTH 578 0
DWIDTH 5 0
BBX 6 9 0 0
BITMAP
2A00
3B00
1A00
6A80
EFD0
EFD0
EAD0
FFD0
7F80
ENDCHAR
STARTCHAR Dcaron
ENCODING 270
SWIDTH 578 0
DWIDTH 5 0
BBX 6 9 0 0
BITMAP
2A00
3B00
2A00
6980
EE90
EE90
D9D0
FFD0
7F80
ENDCHAR
STARTCHAR dcaron
ENCODING 271
SWIDTH 578 0
DWIDTH 5 0
BBX 6 6 0 0
BITMAP
5A40
EDD0
EED0
DAD0
FFD0
7F80
ENDCHAR
STARTCHAR Dcroat
ENCODING 272
SWIDTH 578 0
DWIDTH 5 0
BBX 6 6 0 0
BITMAP
6980
DE90
DE90
D9D0
FFD0
7F80
ENDCHAR
STARTCHAR dcroat
ENCODING 273
SWIDTH 578 0
DWIDTH 5 0
BBX 6 6 0 0
BITMAP
6980
DE90
DE90
D9D0
FFD0
7F80
ENDCHAR
STARTCHAR Emacron
ENCODING 274
SWIDTH 578 0
DWIDTH 5 0
BBX 6 9 0 0
BITMAP
1A00
3A80
2F40
6680
EBD0
E6D0
E6D0
FFD0
7F80
ENDCHAR
STARTCHAR emacron
ENCODING 275
SWIDTH 578 0
DWIDTH 5 0
BBX 6 9 0 0
BITMAP
1900
7B40
3F40
6A80
D9D0
DBD0
EAD0
FFD0
7F80
ENDCHAR
STARTCHAR Ebreve
ENCODING 276
SWIDTH 578 0
DWIDTH 5 0
BBX 6 9 0 0
BITMAP
1A00
3F80
2A40
6680
EBD0
E6D0
E6D0
FFD0
7F80
ENDCHAR
STARTCHAR ebreve
ENCODING 277
SWIDTH 578 0
DWIDTH 5 0
BBX 6 9 0 0
BITMAP
1900
7F40
3B40
6A80
D9D0
DBD0
EAD0
FFD0
7F80
ENDCHAR
STARTCHAR Edotaccent
ENCODING 278
SWIDTH 578 0
DWIDTH 5 0
BBX 6 9 0 0
BITMAP
1A00
3B80
3F80
6680
EBD0
E6D0
E6D0
FFD0
7F80
ENDCHAR
STARTCHAR edotaccent
ENCODING 279
SWIDTH 578 0
DWIDTH 5 0
BBX 6 9 0 0
BITMAP
1900
7B40
7F40
6A80
D9D0
DBD0
EAD0
FFD0
7F80
ENDCHAR
STARTCHAR Eogonek
ENCODING 280
SWIDTH 578 0
DWIDTH 5 0
BBX 6 6 0 0
BITMAP
6680
EBD0
E6D0
E6D0
FED0
7E80
ENDCHAR
STARTCHAR eogonek
ENCODING 281
SWIDTH 578 0
DWIDTH 5 0
BBX 6 6 0 0
BITMAP
6A80
D9D0
DBD0
E6D0
FBD0
7F80
ENDCHAR
STARTCHAR Ecaron
ENCODING 282
SWIDTH 578 0
DWIDTH 5 0
BBX 6 9 0 0
BITMAP
2B40
2A40
1A00
6680
EBD0
E6D0
E6D0
FFD0
7F80
ENDCHAR
STARTCHAR ecaron
ENCODING 283
SWIDTH 578 0
DWIDTH 5 0
BBX 6 9 0 0
BITMAP
2A00
3B00
2A00
6A80
D9D0
DBD0
EAD0
FFD0
7F80
ENDCHAR
STARTCHAR Gcircumflex
ENCODING 284
SWIDTH 578 0
DWIDTH 5 0
BBX 6 9 0 0
BITMAP
1A00
2A00
2A40
6A80
EFD0
EDD0
E9D0
FFD0
7F80
ENDCHAR
STARTCHAR gcircumflex
ENCODING 285
SWIDTH 578 0
DWIDTH 5 0
BBX 6 9 0 0
BITMAP
1A00
2A00
2A40
6A80
EFD0
EDD0
E9D0
FFD0
7F80
ENDCHAR
STARTCHAR Gbreve
ENCODING 286
SWIDTH 578 0
DWIDTH 5 0
BBX 6 9 0 0
BITMAP
1900
3F80
3B40
6A80
EFD0
EDD0
E9D0
FFD0
7F80
ENDCHAR
STARTCHAR gbreve
ENCODING 287
SWIDTH 578 0
DWIDTH 5 0
BBX 6 9 0 0
BITMAP
1900
7F40
3B40
6A80
EFD0
EDD0
E9D0
FFD0
7F80
ENDCHAR
STARTCHAR Gdotaccent
ENCODING 288
SWIDTH 578 0
DWIDTH 5 0
BBX 6 9 0 0
BITMAP
1900
7B40
7F40
6A80
EFD0
EDD0
E9D0
FFD0
7F80
ENDCHAR
STARTCHAR gdotaccent
ENCODING 289
SWIDTH 578 0
DWIDTH 5 0
BBX 6 9 0 0
BITMAP
1900
7B40
7F40
6A80
EFD0
EDD0
E9D0
FFD0
7F80
ENDCHAR
STARTCHAR Gcommaaccent
ENCODING 290
SWIDTH 578 0
DWIDTH 5 0
BBX 6 6 0 0
BITMAP
6A80
EFD0
EDD0
E9D0
FBD0
7F80
ENDCHAR
STARTCHAR gcommaaccent
ENCODING 291
SWIDTH 578 0
DWIDTH 5 0
BBX 6 6 0 0
BITMAP
6A80
EFD0
EDD0
E9D0
FBD0
7F80
ENDCHAR
STARTCHAR Hcircumflex
ENCODING 292
SWIDTH 578 0
DWIDTH 5 0
BBX 6 9 0 0
BITMAP
1A00
2A00
2A40
6E40
EE90
D990
EE90
FFD0
7F80
ENDCHAR
STARTCHAR hcircumflex
ENCODING 293
SWIDTH 578 0
DWIDTH 5 0
BBX 6 9 0 0
BITMAP
1A00
2A40
2A40
6E40
EE90
D990
EE90
FFD0
7F80
ENDCHAR
STARTCHAR Hbar
ENCODING 294
SWIDTH 578 0
DWIDTH 5 0
BBX 6 9 0 0
BITMAP
1900
3A80
3F40
6E40
EE90
D990
EE90
FFD0
7F80
ENDCHAR
STARTCHAR hbar
ENCODING 295
SWIDTH 578 0
DWIDTH 5 0
BBX 6 6 0 0
BITMAP
6E40
D990
D990
EE90
FFD0
7F80
ENDCHAR
STARTCHAR Itilde
ENCODING 296
SWIDTH 578 0
DWIDTH 5 0
BBX 6 9 0 0
BITMAP
1A40
3F80
2A80
6580
FBD0
FBD0
E6D0
FFD0
7F80
ENDCHAR
STARTCHAR itilde
ENCODING 297
SWIDTH 578 0
DWIDTH 5 0
BBX 6 9 0 0
BITMAP
1A40
3F80
2A80
6580
FBD0
FBD0
E6D0
FFD0
7F80
ENDCHAR
STARTCHAR Imacron
ENCODING 298
SWIDTH 578 0
DWIDTH 5 0
BBX 6 9 0 0
BITMAP
1A00
3A80
2F40
6580
FBD0
FBD0
E6D0
FFD0
7F80
ENDCHAR
STARTCHAR imacron
ENCODING 299
SWIDTH 578 0
DWIDTH 5 0
BBX 6 9 0 0
BITMAP
1900
3A80
2F40
6580
FBD0
FBD0
E6D0
FFD0
7F80
ENDCHAR
STARTCHAR Ibreve
ENCODING 300
SWIDTH 578 0
DWIDTH 5 0
BBX 6 9 0 0
BITMAP
1A00
3F80
2A40
6580
FBD0
FBD0
E6D0
FFD0
7F80
ENDCHAR
STARTCHAR ibreve
ENCODING 301
SWIDTH 578 0
DWIDTH 5 0
BBX 6 9 0 0
BITMAP
1A00
3F80
2A40
6580
FBD0
FBD0
E6D0
FFD0
7F80
ENDCHAR
STARTCHAR Iogonek
ENCODING 302
SWIDTH 578 0
DWIDTH 5 0
BBX 6 6 0 0
BITMAP
6580
FBD0
FBD0
E6D0
FED0
7E80
ENDCHAR
STARTCHAR iogonek
ENCODING 303
SWIDTH 578 0
DWIDTH 5 0
BBX 6 6 0 0
BITMAP
6580
FBD0
FBD0
E6D0
FED0
7E80
ENDCHAR
STARTCHAR Idotaccent
ENCODING 304
SWIDTH 578 0
DWIDTH 5 0
BBX 6 9 0 0
BITMAP
1900
3B80
3F40
6580
FBD0
FBD0
E6D0
FFD0
7F80
ENDCHAR
STARTCHAR dotlessi
ENCODING 305
SWIDTH 578 0
DWIDTH 5 0
BBX 6 6 0 0
BITMAP
6580
FBD0
FBD0
E6D0
FFD0
7F80
ENDCHAR
STARTCHAR IJ
ENCODING 306
SWIDTH 578 0
DWIDTH 5 0
BBX 6 6 0 0
BITMAP
5B40
EF90
EF90
D990
FFD0
7F80
ENDCHAR
STARTCHAR ij
ENCODING 307
SWIDTH 578 0
DWIDTH 5 0
BBX 6 6 0 0
BITMAP
5B40
EF90
EF90
D990
FFD0
7F80
ENDCHAR
STARTCHAR Jcircumflex
ENCODING 308
SWIDTH 578 0
DWIDTH 5 0
BBX 6 9 0 0
BITMAP
1E00
2A40
2A40
7E80
FED0
FED0
FAD0
FFD0
7F80
ENDCHAR
STARTCHAR jcircumflex
ENCODING 309
SWIDTH 578 0
DWIDTH 5 0
BBX 6 9 0 0
BITMAP
1E00
2A40
2A40
7E80
FED0
FED0
FAD0
FFD0
7F80
ENDCHAR
STARTCHAR Kcommaaccent
ENCODING 310
SWIDTH 578 0
DWIDTH 5 0
BBX 6 6 0 0
BITMAP
6E40
E6D0
E6D0
EAD0
FBD0
7F80
ENDCHAR
STARTCHAR kcommaaccent
ENCODING 311
SWIDTH 578 0
DWIDTH 5 0
BBX 6 6 0 0
BITMAP
6E40
E6D0
E6D0
EAD0
FBD0
7F80
ENDCHAR
STARTCHAR kgreenlandic
ENCODING 312
SWIDTH 578 0
DWIDTH 5 0
BBX 6 6 0 0
BITMAP
6E40
E6D0
E6D0
EAD0
FFD0
7F80
ENDCHAR
STARTCHAR Lacute
ENCODING 313
SWIDTH 578 0
DWIDTH 5 0
BBX 6 9 0 0
BITMAP
1E00
2A00
2D00
7B80
FBD0
FBD0
F6D0
FFD0
7F80
ENDCHAR
STARTCHAR lacute
ENCODING 314
SWIDTH 578 0
DWIDTH 5 0
BBX 6 9 0 0
BITMAP
1E00
2A00
2D00
7B80
FBD0
FBD0
F6D0
FFD0
7F80
ENDCHAR
STARTCHAR Lcommaaccent
ENCODING 315
SWIDTH 578 0
DWIDTH 5 0
BBX 6 6 0 0
BITMAP
7B80
FBD0
FBD0
F6D0
FBD0
7F80
ENDCHAR
STARTCHAR lcommaaccent
ENCODING 316
SWIDTH 578 0
DWIDTH 5 0
BBX 6 6 0 0
BITMAP
7B80
FBD0
FBD0
F6D0
FBD0
7F80
ENDCHAR
STARTCHAR Lcaron
ENCODING 317
SWIDTH 578 0
DWIDTH 5 0
BBX 6 6 0 0
BITMAP
7A80
FBD0
FBD0
F6D0
FFD0
7F80
ENDCHAR
STARTCHAR lcaron
ENCODING 318
SWIDTH 578 0
DWIDTH 5 0
BBX 6 6 0 0
BITMAP
7A80
FBD0
FBD0
F6D0
FFD0
7F80
ENDCHAR
STARTCHAR Ldot
ENCODING 319
SWIDTH 578 0
DWIDTH 5 0
BBX 6 6 0 0
BITMAP
7B80
F6D0
FBD0
F6D0
FFD0
7F80
ENDCHAR
STARTCHAR ldot
ENCODING 320
SWIDTH 578 0
DWIDTH 5 0
BBX 6 6 0 0
BITMAP
7B80
F6D0
FBD0
F6D0
FFD0
7F80
ENDCHAR
STARTCHAR Lslash
ENCODING 321
SWIDTH 578 0
DWIDTH 5 0
BBX 6 6 0 0
BITMAP
7B80
F7D0
EBD0
F6D0
FFD0
7F80
ENDCHAR
STARTCHAR lslash
ENCODING 322
SWIDTH 578 0
DWIDTH 5 0
BBX 6 6 0 0
BITMAP
7B80
F7D0
EBD0
F6D0
FFD0
7F80
ENDCHAR
STARTCHAR Nacute
ENCODING 323
SWIDTH 578 0
DWIDTH 5 0
BBX 6 9 0 0
BITMAP
0F40
1B00
1E00
6980
EED0
EED0
EED0
FFD0
7F80
ENDCHAR
STARTCHAR nacute
ENCODING 324
SWIDTH 578 0
DWIDTH 5 0
BBX 6 9 0 0
BITMAP
0F40
1B00
1E00
6980
EED0
EED0
EED0
FFD0
7F80
ENDCHAR
STARTCHAR Ncommaaccent
ENCODING 325
SWIDTH 578 0
DWIDTH 5 0
BBX 6 6 0 0
BITMAP
6980
EED0
EED0
EED0
FBD0
7F80
ENDCHAR
STARTCHAR ncommaaccent
ENCODING 326
SWIDTH 578 0
DWIDTH 5 0
BBX 6 6 0 0
BITMAP
6980
EED0
EED0
EED0
FBD0
7F80
ENDCHAR
STARTCHAR Ncaron
ENCODING 327
SWIDTH 578 0
DWIDTH 5 0
BBX 6 9 0 0
BITMAP
2A00
3B00
2A00
6980
EED0
EED0
EED0
FFD0
7F80
ENDCHAR
STARTCHAR ncaron
ENCODING 328
SWIDTH 578 0
DWIDTH 5 0
BBX 6 9 0 0
BITMAP
2A00
3B00
2A00
6980
EED0
EED0
EED0
FFD0
7F80
ENDCHAR
STARTCHAR napostrophe
ENCODING 329
SWIDTH 578 0
DWIDTH 5 0
BBX 6 6 0 0
BITMAP
6980
9ED0
EED0
EED0
FFD0
7F80
ENDCHAR
STARTCHAR Eng
ENCODING 330
SWIDTH 578 0
DWIDTH 5 0
BBX 6 6 0 0
BITMAP
6980
EED0
EED0
EED0
FED0
7E80
ENDCHAR
STARTCHAR eng
ENCODING 331
SWIDTH 578 0
DWIDTH 5 0
BBX 6 6 0 0
BITMAP
6980
EED0
EED0
EED0
FED0
7E80
ENDCHAR
STARTCHAR Omacron
ENCODING 332
SWIDTH 578 0
DWIDTH 5 0
BBX 6 9 0 0
BITMAP
1A00
3A80
2F40
6980
EE90
EE90
E9D0
FFD0
7F80
ENDCHAR
STARTCHAR omacron
ENCODING 333
SWIDTH 578 0
DWIDTH 5 0
BBX 6 9 0 0
BITMAP
1A00
3A80
2F40
6980
EE90
EE90
E9D0
FFD0
7F80
ENDCHAR
STARTCHAR Obreve
ENCODING 334
SWIDTH 578 0
DWIDTH 5 0
BBX 6 9 0 0
BITMAP
1A00
3F80
2A40
6980
EE90
EE90
E9D0
FFD0
7F80
ENDCHAR
STARTCHAR obreve
ENCODING 335
SWIDTH 578 0
DWIDTH 5 0
BBX 6 9 0 0
BITMAP
1A00
3F80
2A40
6980
EE90
EE90
E9D0
FFD0
7F80
ENDCHAR
STARTCHAR Ohungarumlaut
ENCODING 336
SWIDTH 578 0
DWIDTH 5 0
BBX 6 9 0 0
BITMAP
0B80
1AC0
1A40
6980
EE90
EE90
E9D0
FFD0
7F80
ENDCHAR
STARTCHAR ohungarumlaut
ENCODING 337
SWIDTH 578 0
DWIDTH 5 0
BBX 6 9 0 0
BITMAP
0B80
1AC0
1A40
6980
EE90
EE90
E9D0
FFD0
7F80
ENDCHAR
STARTCHAR OE
ENCODING 338
SWIDTH 578 0
DWIDTH 5 0
BBX 6 6 0 0
BITMAP
5540
EBD0
EAD0
D6D0
FFD0
7F80
ENDCHAR
STARTCHAR oe
ENCODING 339
SWIDTH 578 0
DWIDTH 5 0
BBX 6 6 0 0
BITMAP
5540
EBD0
EAD0
D6D0
FFD0
7F80
ENDCHAR
STARTCHAR Racute
ENCODING 340
SWIDTH 578 0
DWIDTH 5 0
BBX 6 9 0 0
BITMAP
0F40
1B00
1E00
6A80
EED0
E9D0
EED0
FFD0
7F80
ENDCHAR
STARTCHAR racute
ENCODING 341
SWIDTH 578 0
DWIDTH 5 0
BBX 6 9 0 0
BITMAP
0F40
1B00
1E00
6A80
EED0
E9D0
EED0
FFD0
7F80
ENDCHAR
STARTCHAR Rcommaaccent
ENCODING 342
SWIDTH 578 0
DWIDTH 5 0
BBX 6 6 0 0
BITMAP
6A80
EED0
E9D0
EED0
FBD0
7F80
ENDCHAR
STARTCHAR rcommaaccent
ENCODING 343
SWIDTH 578 0
DWIDTH 5 0
BBX 6 6 0 0
BITMAP
6A80
EED0
E9D0
EED0
FBD0
7F80
ENDCHAR
STARTCHAR Rcaron
ENCODING 344
SWIDTH 578 0
DWIDTH 5 0
BBX 6 9 0 0
BITMAP
2A00
3B00
2A00
6A80
EED0
E9D0
EED0
FFD0
7F80
ENDCHAR
STARTCHAR rcaron
ENCODING 345
SWIDTH 578 0
DWIDTH 5 0
BBX 6 9 0 0
BITMAP
2A00
3B00
2A00
6A80
EED0
E9D0
EED0
FFD0
7F80
ENDCHAR
STARTCHAR Sacute
ENCODING 346
SWIDTH 578 0
DWIDTH 5 0
BBX 6 9 0 0
BITMAP
0B40
0A40
0E00
6A80
EFD0
F9D0
F9D0
FFD0
7F80
ENDCHAR
STARTCHAR sacute
ENCODING 347
SWIDTH 578 0
DWIDTH 5 0
BBX 6 9 0 0
BITMAP
0B40
0A40
0E00
6A80
EFD0
F9D0
F9D0
FFD0
7F80
ENDCHAR
STARTCHAR Scircumflex
ENCODING 348
SWIDTH 578 0
DWIDTH 5 0
BBX 6 9 0 0
BITMAP
1E00
2A40
2A40
6A80
EFD0
F9D0
F9D0
FFD0
7F80
ENDCHAR
STARTCHAR scircumflex
ENCODING 349
SWIDTH 578 0
DWIDTH 5 0
BBX 6 9 0 0
BITMAP
1E00
2A40
2A40
6A80
EFD0
F9D0
F9D0
FFD0
7F80
ENDCHAR
STARTCHAR Scedilla
ENCODING 350
SWIDTH 578 0
DWIDTH 5 0
BBX 6 6 0 0
BITMAP
6A80
EFD0
F9D0
F9D0
F7D0
7B80
ENDCHAR
STARTCHAR scedilla
ENCODING 351
SWIDTH 578 0
DWIDTH 5 0
BBX 6 6 0 0
BITMAP
6A80
EFD0
F9D0
F9D0
F7D0
7B80
ENDCHAR
STARTCHAR Scaron
ENCODING 352
SWIDTH 578 0
DWIDTH 5 0
BBX 6 9 0 0
BITMAP
2B40
2A40
1A00
6A80
EFD0
F9D0
F9D0
FFD0
7F80
ENDCHAR
STARTCHAR scaron
ENCODING 353
SWIDTH 578 0
DWIDTH 5 0
BBX 6 9 0 0
BITMAP
2B40
2A40
1A00
6A80
EFD0
F9D0
F9D0
FFD0
7F80
ENDCHAR
STARTCHAR Tcommaaccent
ENCODING 354
SWIDTH 578 0
DWIDTH 5 0
BBX 6 6 0 0
BITMAP
6580
FBD0
FBD0
FBD0
FBD0
7F80
ENDCHAR
STARTCHAR tcommaaccent
ENCODING 355
SWIDTH 578 0
DWIDTH 5 0
BBX 6 6 0 0
BITMAP
6580
FBD0
FBD0
FBD0
FBD0
7F80
ENDCHAR
STARTCHAR Tcaron
ENCODING 356
SWIDTH 578 0
DWIDTH 5 0
BBX 6 9 0 0
BITMAP
2B40
2A40
1A00
6580
FBD0
FBD0
FBD0
FFD0
7F80
ENDCHAR
STARTCHAR tcaron
ENCODING 357
SWIDTH 578 0
DWIDTH 5 0
BBX 6 6 0 0
BITMAP
6580
F9D0
FBD0
FBD0
FFD0
7F80
ENDCHAR
STARTCHAR Tbar
ENCODING 358
SWIDTH 578 0
DWIDTH 5 0
BBX 6 6 0 0
BITMAP
6580
FBD0
F6D0
FBD0
FFD0
7F80
ENDCHAR
STARTCHAR tbar
ENCODING 359
SWIDTH 578 0
DWIDTH 5 0
BBX 6 6 0 0
BITMAP
6580
FBD0
F6D0
FBD0
FFD0
7F80
ENDCHAR
STARTCHAR Utilde
ENCODING 360
SWIDTH 578 0
DWIDTH 5 0
BBX 6 9 0 0
BITMAP
1A40
3F80
2A80
6E40
EED0
EED0
E9D0
FFD0
7F80
ENDCHAR
STARTCHAR utilde
ENCODING 361
SWIDTH 578 0
DWIDTH 5 0
BBX 6 9 0 0
BITMAP
1A40
3F80
2A80
6E40
EED0
EED0
E9D0
FFD0
7F80
ENDCHAR
STARTCHAR Umacron
ENCODING 362
SWIDTH 578 0
DWIDTH 5 0
BBX 6 9 0 0
BITMAP
1A00
3A80
2F40
6E40
EED0
EED0
E9D0
FFD0
7F80
ENDCHAR
STARTCHAR umacron
ENCODING 363
SWIDTH 578 0
DWIDTH 5 0
BBX 6 9 0 0
BITMAP
1A00
3A80
2F40
6E40
EED0
EED0
E9D0
FFD0
7F80
ENDCHAR
STARTCHAR Ubreve
ENCODING 364
SWIDTH 578 0
DWIDTH 5 0
BBX 6 9 0 0
BITMAP
1A00
3F80
2A40
6E40
EED0
EED0
E9D0
FFD0
7F80
ENDCHAR
STARTCHAR ubreve
ENCODING 365
SWIDTH 578 0
DWIDTH 5 0
BBX 6 9 0 0
BITMAP
1A00
3F80
2A40
6E40
EED0
EED0
E9D0
FFD0
7F80
ENDCHAR
STARTCHAR Uring
ENCODING 366
SWIDTH 578 0
DWIDTH 5 0
BBX 6 9 0 0
BITMAP
1A00
2640
2B40
6E40
EED0
EED0
E9D0
FFD0
7F80
ENDCHAR
STARTCHAR uring
ENCODING 367
SWIDTH 578 0
DWIDTH 5 0
BBX 6 9 0 0
BITMAP
1A00
2640
2B40
6E40
EED0
EED0
E9D0
FFD0
7F80
ENDCHAR
STARTCHAR Uhungarumlaut
ENCODING 368
SWIDTH 581 0
DWIDTH 5 0
BBX 6 9 0 0
BITMAP
0B80
1AC0
1A40
6E40
EED0
EED0
E9D0
FFD0
7F80
ENDCHAR
STARTCHAR uhungarumlaut
ENCODING 369
SWIDTH 582 0
DWIDTH 5 0
BBX 6 9 0 0
BITMAP
0B80
1AC0
1A40
6E40
EED0
EED0
E9D0
FFD0
7F80
ENDCHAR
STARTCHAR Uogonek
ENCODING 370
SWIDTH 578 0
DWIDTH 5 0
BBX 6 6 0 0
BITMAP
6E40
EED0
EED0
E9D0
FBD0
7A80
ENDCHAR
STARTCHAR uogonek
ENCODING 371
SWIDTH 578 0
DWIDTH 5 0
BBX 6 6 0 0
BITMAP
6E40
EED0
EED0
E9D0
FBD0
7A80
ENDCHAR
STARTCHAR Wcircumflex
ENCODING 372
SWIDTH 578 0
DWIDTH 5 0
BBX 6 9 0 0
BITMAP
1A00
2A00
2A40
6B40
E690
E590
D9D0
FFD0
7F80
ENDCHAR
STARTCHAR wcircumflex
ENCODING 373
SWIDTH 578 0
DWIDTH 5 0
BBX 6 9 0 0
BITMAP
1A00
2A00
2A40
6B40
E690
E590
D9D0
FFD0
7F80
ENDCHAR
STARTCHAR Ycircumflex
ENCODING 374
SWIDTH 578 0
DWIDTH 5 0
BBX 6 9 0 0
BITMAP
1E00
2A40
2A40
6E80
F9D0
F6D0
FBD0
FFD0
7F80
ENDCHAR
STARTCHAR ycircumflex
ENCODING 375
SWIDTH 578 0
DWIDTH 5 0
BBX 6 9 0 0
BITMAP
1E00
2A40
2A40
6E80
F9D0
F6D0
FBD0
FFD0
7F80
ENDCHAR
STARTCHAR Ydieresis
ENCODING 376
SWIDTH 578 0
DWIDTH 5 0
BBX 6 9 0 0
BITMAP
0900
2A40
2A40
6E80
F9D0
F6D0
FBD0
FFD0
7F80
ENDCHAR
STARTCHAR Zacute
ENCODING 377
SWIDTH 578 0
DWIDTH 5 0
BBX 6 9 0 0
BITMAP
0F00
1B00
1D00
6A80
FED0
F7D0
E6D0
FFD0
7F80
ENDCHAR
STARTCHAR zacute
ENCODING 378
SWIDTH 578 0
DWIDTH 5 0
BBX 6 9 0 0
BITMAP
0F00
1B00
1D00
6A80
FED0
F7D0
E6D0
FFD0
7F80
ENDCHAR
STARTCHAR Zdotaccent
ENCODING 379
SWIDTH 578 0
DWIDTH 5 0
BBX 6 9 0 0
BITMAP
1900
7B40
7F40
6A80
FED0
F7D0
E6D0
FFD0
7F80
ENDCHAR
STARTCHAR zdotaccent
ENCODING 380
SWIDTH 578 0
DWIDTH 5 0
BBX 6 9 0 0
BITMAP
1900
7B40
7F40
6A80
FED0
F7D0
E6D0
FFD0
7F80
ENDCHAR
STARTCHAR Zcaron
ENCODING 381
SWIDTH 578 0
DWIDTH 5 0
BBX 6 9 0 0
BITMAP
2B00
2A40
1A00
6A80
FED0
F7D0
E6D0
FFD0
7F80
ENDCHAR
STARTCHAR zcaron
ENCODING 382
SWIDTH 578 0
DWIDTH 5 0
BBX 6 9 0 0
BITMAP
2B00
2A40
1A00
6A80
FED0
F7D0
E6D0
FFD0
7F80
ENDCHAR
STARTCHAR longs
ENCODING 383
SWIDTH 578 0
DWIDTH 5 0
BBX 6 6 0 0
BITMAP
7A80
EED0
EAD0
FBD0
FFD0
7F80
ENDCHAR
STARTCHAR florin
ENCODING 402
SWIDTH 578 0
DWIDTH 5 0
BBX 6 6 0 0
BITMAP
7A80
FBD0
F7D0
FBD0
EBD0
7F80
ENDCHAR
STARTCHAR uni01CD
ENCODING 461
SWIDTH 578 0
DWIDTH 5 0
BBX 6 9 0 0
BITMAP
2B40
2A40
1A00
6A80
EED0
D9D0
DED0
FFD0
7F80
ENDCHAR
STARTCHAR uni01CE
ENCODING 462
SWIDTH 578 0
DWIDTH 5 0
BBX 6 9 0 0
BITMAP
2B40
2A40
1A00
6A80
FED0
E9D0
E9D0
FFD0
7F80
ENDCHAR
STARTCHAR uni01CF
ENCODING 463
SWIDTH 578 0
DWIDTH 5 0
BBX 6 9 0 0
BITMAP
2B40
2A40
1A00
6580
FBD0
FBD0
E6D0
FFD0
7F80
ENDCHAR
STARTCHAR uni01D0
ENCODING 464
SWIDTH 578 0
DWIDTH 5 0
BBX 6 9 0 0
BITMAP
2B40
2A40
1A00
6580
FBD0
FBD0
E6D0
FFD0
7F80
ENDCHAR
STARTCHAR uni01D1
ENCODING 465
SWIDTH 578 0
DWIDTH 5 0
BBX 6 9 0 0
BITMAP
2B40
2A40
1A00
6980
EE90
EE90
E9D0
FFD0
7F80
ENDCHAR
STARTCHAR uni01D3
ENCODING 467
SWIDTH 578 0
DWIDTH 5 0
BBX 6 9 0 0
BITMAP
2B40
2A40
1A00
6E40
EED0
EED0
E9D0
FFD0
7F80
ENDCHAR
STARTCHAR uni01D4
ENCODING 468
SWIDTH 578 0
DWIDTH 5 0
BBX 6 9 0 0
BITMAP
2B40
2A40
1A00
6E40
EED0
EED0
E9D0
FFD0
7F80
ENDCHAR
STARTCHAR uni0200
ENCODING 512
SWIDTH 578 0
DWIDTH 5 0
BBX 6 9 0 0
BITMAP
7D00
6B00
2A00
6A80
EED0
D9D0
DED0
FFD0
7F80
ENDCHAR
STARTCHAR uni0201
ENCODING 513
SWIDTH 578 0
DWIDTH 5 0
BBX 6 9 0 0
BITMAP
7D00
6B00
2A00
6A80
FED0
E9D0
E9D0
FFD0
7F80
ENDCHAR
STARTCHAR uni0202
ENCODING 514
SWIDTH 578 0
DWIDTH 5 0
BBX 6 9 0 0
BITMAP
0500
3F40
3A80
7B80
EED0
D9D0
DED0
FFD0
7F80
ENDCHAR
STARTCHAR uni0203
ENCODING 515
SWIDTH 578 0
DWIDTH 5 0
BBX 6 9 0 0
BITMAP
0500
3F40
3A80
7B80
FED0
E9D0
E9D0
FFD0
7F80
ENDCHAR
STARTCHAR uni0204
ENCODING 516
SWIDTH 578 0
DWIDTH 5 0
BBX 6 9 0 0
BITMAP
7D00
6B00
2A00
6680
EBD0
E6D0
E6D0
FFD0
7F80
ENDCHAR
STARTCHAR uni0205
ENCODING 517
SWIDTH 578 0
DWIDTH 5 0
BBX 6 9 0 0
BITMAP
7D00
6B00
2A00
6A80
D9D0
DBD0
EAD0
FFD0
7F80
ENDCHAR
STARTCHAR uni0206
ENCODING 518
SWIDTH 578 0
DWIDTH 5 0
BBX 6 9 0 0
BITMAP
0500
3F40
3A80
7A80
EBD0
E6D0
E6D0
FFD0
7F80
ENDCHAR
STARTCHAR uni0207
ENCODING 519
SWIDTH 578 0
DWIDTH 5 0
BBX 6 9 0 0
BITMAP
0500
3F40
3A80
6B80
D9D0
DBD0
EAD0
FFD0
7F80
ENDCHAR
STARTCHAR uni0208
ENCODING 520
SWIDTH 578 0
DWIDTH 5 0
BBX 6 9 0 0
BITMAP
7D00
6B00
2A00
6580
FBD0
FBD0
E6D0
FFD0
7F80
ENDCHAR
STARTCHAR uni0209
ENCODING 521
SWIDTH 578 0
DWIDTH 5 0
BBX 6 9 0 0
BITMAP
7D00
6B00
2A00
6580
FBD0
FBD0
E6D0
FFD0
7F80
ENDCHAR
STARTCHAR uni020A
ENCODING 522
SWIDTH 578 0
DWIDTH 5 0
BBX 6 9 0 0
BITMAP
0500
3F40
3A80
7A80
FBD0
FBD0
E6D0
FFD0
7F80
ENDCHAR
STARTCHAR uni020B
ENCODING 523
SWIDTH 578 0
DWIDTH 5 0
BBX 6 9 0 0
BITMAP
0500
3F40
3A80
7A80
FBD0
FBD0
E6D0
FFD0
7F80
ENDCHAR
STARTCHAR uni020C
ENCODING 524
SWIDTH 578 0
DWIDTH 5 0
BBX 6 9 0 0
BITMAP
7D00
6B00
2A00
6980
EE90
EE90
E9D0
FFD0
7F80
ENDCHAR
STARTCHAR uni020D
ENCODING 525
SWIDTH 578 0
DWIDTH 5 0
BBX 6 9 0 0
BITMAP
7D00
6B00
2A00
6980
EE90
EE90
E9D0
FFD0
7F80
ENDCHAR
STARTCHAR uni020E
ENCODING 526
SWIDTH 578 0
DWIDTH 5 0
BBX 6 9 0 0
BITMAP
0500
3F40
3A80
7A80
EE90
EE90
E9D0
FFD0
7F80
ENDCHAR
STARTCHAR uni020F
ENCODING 527
SWIDTH 578 0
DWIDTH 5 0
BBX 6 9 0 0
BITMAP
0500
3F40
3A80
7A80
EE90
EE90
E9D0
FFD0
7F80
ENDCHAR
STARTCHAR uni0210
ENCODING 528
SWIDTH 578 0
DWIDTH 5 0
BBX 6 9 0 0
BITMAP
7D00
6B00
2A00
6A80
EED0
E9D0
EED0
FFD0
7F80
ENDCHAR
STARTCHAR uni0211
ENCODING 529
SWIDTH 578 0
DWIDTH 5 0
BBX 6 9 0 0
BITMAP
7D00
6B00
2A00
6A80
EED0
E9D0
EED0
FFD0
7F80
ENDCHAR
STARTCHAR uni0212
ENCODING 530
SWIDTH 578 0
DWIDTH 5 0
BBX 6 9 0 0
BITMAP
0500
3F40
3A80
6A80
EED0
E9D0
EED0
FFD0
7F80
ENDCHAR
STARTCHAR uni0213
ENCODING 531
SWIDTH 578 0
DWIDTH 5 0
BBX 6 9 0 0
BITMAP
0500
3F40
3A80
6A80
EED0
E9D0
EED0
FFD0
7F80
ENDCHAR
STARTCHAR uni0214
ENCODING 532
SWIDTH 578 0
DWIDTH 5 0
BBX 6 9 0 0
BITMAP
7D00
6B00
2A00
6E40
EED0
EED0
E9D0
FFD0
7F80
ENDCHAR
STARTCHAR uni0215
ENCODING 533
SWIDTH 578 0
DWIDTH 5 0
BBX 6 9 0 0
BITMAP
7D00
6B00
2A00
6E40
EED0
EED0
E9D0
FFD0
7F80
ENDCHAR
STARTCHAR uni0216
ENCODING 534
SWIDTH 578 0
DWIDTH 5 0
BBX 6 9 0 0
BITMAP
0500
3F40
3A80
6F80
EED0
EED0
E9D0
FFD0
7F80
ENDCHAR
STARTCHAR uni0217
ENCODING 535
SWIDTH 578 0
DWIDTH 5 0
BBX 6 9 0 0
BITMAP
0500
3F40
3A80
6F80
EED0
EED0
E9D0
FFD0
7F80
ENDCHAR
STARTCHAR uni0218
ENCODING 536
SWIDTH 578 0
DWIDTH 5 0
BBX 6 6 0 0
BITMAP
6A80
EFD0
F9D0
F9D0
FBD0
7F80
ENDCHAR
STARTCHAR uni0219
ENCODING 537
SWIDTH 578 0
DWIDTH 5 0
BBX 6 6 0 0
BITMAP
6A80
EFD0
F9D0
F9D0
FBD0
7F80
ENDCHAR
STARTCHAR uni021A
ENCODING 538
SWIDTH 578 0
DWIDTH 5 0
BBX 6 6 0 0
BITMAP
6580
FBD0
FBD0
FBD0
FBD0
7F80
ENDCHAR
STARTCHAR uni021B
ENCODING 539
SWIDTH 578 0
DWIDTH 5 0
BBX 6 6 0 0
BITMAP
6580
FBD0
FBD0
FBD0
FBD0
7F80
ENDCHAR
STARTCHAR circumflex
ENCODING 710
SWIDTH 355 0
DWIDTH 3 0
BBX 3 4 0 0
BITMAP
10
68
AC
A8
ENDCHAR
STARTCHAR caron
ENCODING 711
SWIDTH 355 0
DWIDTH 3 0
BBX 3 3 0 0
BITMAP
A8
EC
A8
ENDCHAR
STARTCHAR breve
ENCODING 728
SWIDTH 428 0
DWIDTH 4 0
BBX 4 3 0 0
BITMAP
68
FE
AA
ENDCHAR
STARTCHAR dotaccent
ENCODING 729
SWIDTH 428 0
DWIDTH 4 0
BBX 4 3 0 0
BITMAP
68
FE
BE
ENDCHAR
STARTCHAR ring
ENCODING 730
SWIDTH 368 0
DWIDTH 3 0
BBX 4 3 0 0
BITMAP
68
E9
ED
ENDCHAR
STARTCHAR ogonek
ENCODING 731
SWIDTH 101 0
DWIDTH 1 0
BBX 1 2 0 -2
BITMAP
40
40
ENDCHAR
STARTCHAR tilde
ENCODING 732
SWIDTH 428 0
DWIDTH 4 0
BBX 4 3 0 0
BITMAP
69
FE
AA
ENDCHAR
STARTCHAR hungarumlaut
ENCODING 733
SWIDTH 419 0
DWIDTH 4 0
BBX 4 3 0 0
BITMAP
7D
AA
A8
ENDCHAR
STARTCHAR uni030F
ENCODING 783
SWIDTH 419 0
DWIDTH 4 0
BBX 4 3 0 0
BITMAP
BC
AA
2A
ENDCHAR
STARTCHAR mu
ENCODING 956
SWIDTH 578 0
DWIDTH 5 0
BBX 6 6 0 0
BITMAP
6E40
EED0
EED0
D9D0
FFD0
7F80
ENDCHAR
STARTCHAR pi
ENCODING 960
SWIDTH 578 0
DWIDTH 5 0
BBX 6 6 0 0
BITMAP
6A80
EA90
AA90
EE90
FAD0
7F80
ENDCHAR
STARTCHAR uni1E60
ENCODING 7776
SWIDTH 578 0
DWIDTH 5 0
BBX 6 9 0 0
BITMAP
1A00
3B80
3F80
6A80
EFD0
F9D0
F9D0
FFD0
7F80
ENDCHAR
STARTCHAR uni1E8E
ENCODING 7822
SWIDTH 578 0
DWIDTH 5 0
BBX 6 9 0 0
BITMAP
1A00
3B80
3F80
6E80
F9D0
F6D0
FBD0
FFD0
7F80
ENDCHAR
STARTCHAR uni1E8F
ENCODING 7823
SWIDTH 578 0
DWIDTH 5 0
BBX 6 9 0 0
BITMAP
1A00
3B80
3F80
6E80
F9D0
F6D0
FBD0
FFD0
7F80
ENDCHAR
STARTCHAR uni1EBC
ENCODING 7868
SWIDTH 578 0
DWIDTH 5 0
BBX 6 9 0 0
BITMAP
1A40
3F80
2A80
6680
EBD0
E6D0
E6D0
FFD0
7F80
ENDCHAR
STARTCHAR uni1EF8
ENCODING 7928
SWIDTH 578 0
DWIDTH 5 0
BBX 6 9 0 0
BITMAP
1A00
3F80
2A80
6E80
F9D0
F6D0
FBD0
FFD0
7F80
ENDCHAR
STARTCHAR uni1EF9
ENCODING 7929
SWIDTH 578 0
DWIDTH 5 0
BBX 6 9 0 0
BITMAP
1A00
3F80
2A80
6E80
F9D0
F6D0
FBD0
FFD0
7F80
ENDCHAR
STARTCHAR endash
ENCODING 8211
SWIDTH 428 0
DWIDTH 4 0
BBX 4 6 0 0
BITMAP
7D
EA
FF
FF
FE
7D
ENDCHAR
STARTCHAR emdash
ENCODING 8212
SWIDTH 428 0
DWIDTH 4 0
BBX 4 6 0 0
BITMAP
7D
69
FF
FF
FE
7D
ENDCHAR
STARTCHAR quoteleft
ENCODING 8216
SWIDTH 428 0
DWIDTH 4 0
BBX 4 6 0 0
BITMAP
69
EE
FF
FF
FE
7D
ENDCHAR
STARTCHAR quoteright
ENCODING 8217
SWIDTH 428 0
DWIDTH 4 0
BBX 4 6 0 0
BITMAP
69
FE
FF
FF
FE
7D
ENDCHAR
STARTCHAR quotesinglbase
ENCODING 8218
SWIDTH 428 0
DWIDTH 4 0
BBX 4 6 0 0
BITMAP
7D
FE
FF
EF
FE
7D
ENDCHAR
STARTCHAR quotedblleft
ENCODING 8220
SWIDTH 428 0
DWIDTH 4 0
BBX 4 6 0 0
BITMAP
69
EA
FF
FF
FE
7D
ENDCHAR
STARTCHAR quotedblright
ENCODING 8221
SWIDTH 428 0
DWIDTH 4 0
BBX 4 6 0 0
BITMAP
65
FE
FF
FF
FE
7D
ENDCHAR
STARTCHAR quotedblbase
ENCODING 8222
SWIDTH 428 0
DWIDTH 4 0
BBX 4 6 0 0
BITMAP
7D
FE
FF
EB
EA
7D
ENDCHAR
STARTCHAR dagger
ENCODING 8224
SWIDTH 578 0
DWIDTH 5 0
BBX 6 6 0 0
BITMAP
7B80
F6D0
FBD0
FBD0
FFD0
7F80
ENDCHAR
STARTCHAR daggerdbl
ENCODING 8225
SWIDTH 578 0
DWIDTH 5 0
BBX 6 6 0 0
BITMAP
7B80
F6D0
FBD0
F6D0
FFD0
7F80
ENDCHAR
STARTCHAR bullet
ENCODING 8226
SWIDTH 578 0
DWIDTH 5 0
BBX 6 6 0 0
BITMAP
7B80
E0D0
D0D0
E5D0
FFD0
7F80
ENDCHAR
STARTCHAR ellipsis
ENCODING 8230
SWIDTH 578 0
DWIDTH 5 0
BBX 6 6 0 0
BITMAP
7F80
FFD0
FFD0
EAD0
FFD0
7F80
ENDCHAR
STARTCHAR perthousand
ENCODING 8240
SWIDTH 640 0
DWIDTH 6 0
BBX 6 6 0 0
BITMAP
6BD0
5BE0
E6A0
E990
FFE0
7FD0
ENDCHAR
STARTCHAR guilsinglleft
ENCODING 8249
SWIDTH 578 0
DWIDTH 5 0
BBX 6 6 0 0
BITMAP
7F80
FAD0
FBD0
FAD0
FFD0
7F80
ENDCHAR
STARTCHAR guilsinglright
ENCODING 8250
SWIDTH 578 0
DWIDTH 5 0
BBX 6 6 0 0
BITMAP
7F80
FBD0
FED0
FBD0
FFD0
7F80
ENDCHAR
STARTCHAR fraction
ENCODING 8260
SWIDTH 428 0
DWIDTH 4 0
BBX 4 6 0 0
BITMAP
79
EA
EF
EF
FE
7D
ENDCHAR
STARTCHAR Euro
ENCODING 8364
SWIDTH 578 0
DWIDTH 5 0
BBX 6 6 0 0
BITMAP
6A80
DBD0
DBD0
EAD0
FFD0
7F80
ENDCHAR
STARTCHAR trademark
ENCODING 8482
SWIDTH 578 0
DWIDTH 5 0
BBX 6 6 0 0
BITMAP
7F80
FFD0
E5D0
FFD0
FFD0
7F80
ENDCHAR
STARTCHAR product
ENCODING 8719
SWIDTH 578 0
DWIDTH 5 0
BBX 6 6 0 0
BITMAP
6A80
EA90
B690
EB90
FAD0
7F80
ENDCHAR
STARTCHAR minus
ENCODING 8722
SWIDTH 428 0
DWIDTH 4 0
BBX 4 6 0 0
BITMAP
7D
EA
FF
FF
FE
7D
ENDCHAR
STARTCHAR notequal
ENCODING 8800
SWIDTH 578 0
DWIDTH 5 0
BBX 6 6 0 0
BITMAP
7F80
E6D0
E6D0
FFD0
FFD0
7F80
ENDCHAR
STARTCHAR uni2706
ENCODING 9990
SWIDTH 578 0
DWIDTH 5 0
BBX 6 6 0 0
BITMAP
7B80
EAD0
EBD0
F6D0
FED0
7F80
ENDCHAR
STARTCHAR uni2708
ENCODING 9992
SWIDTH 578 0
DWIDTH 5 0
BBX 6 6 0 0
BITMAP
5540
5500
0910
0410
4400
5540
ENDCHAR
STARTCHAR uniF6D6
ENCODING 63190
SWIDTH 419 0
DWIDTH 4 0
BBX 4 3 0 0
BITMAP
BC
AA
2A
ENDCHAR
STARTCHAR uFFFF2
ENCODING 1048562
SWIDTH 578 0
DWIDTH 5 0
BBX 6 6 0 0
BITMAP
5440
4400
1910
0410
4400
5540
ENDCHAR
STARTCHAR uFFFF3
ENCODING 1048563
SWIDTH 578 0
DWIDTH 5 0
BBX 6 6 0 0
BITMAP
5540
4900
0910
0910
4000
5540
ENDCHAR
STARTCHAR uFFFF4
ENCODING 1048564
SWIDTH 578 0
DWIDTH 5 0
BBX 6 6 0 0
BITMAP
7F80
EAD0
EED0
EAD0
FFD0
7F80
ENDCHAR
STARTCHAR uFFFF5
ENCODING 1048565
SWIDTH 578 0
DWIDTH 5 0
BBX 6 6 0 0
BITMAP
7B80
EAD0
F6D0
FBD0
FBD0
7B80
ENDCHAR
STARTCHAR uFFFF6
ENCODING 1048566
SWIDTH 578 0
DWIDTH 5 0
BBX 6 6 0 0
BITMAP
7F80
FBD0
E6D0
FBD0
FBD0
7B80
ENDCHAR
STARTCHAR uFFFF8
ENCODING 1048568
SWIDTH 578 0
DWIDTH 5 0
BBX 6 6 0 0
BITMAP
7B80
F6D0
E6D0
E1D0
F7D0
7B80
ENDCHAR
STARTCHAR uFFFF9
ENCODING 1048569
SWIDTH 578 0
DWIDTH 5 0
BBX 6 6 0 0
BITMAP
5440
5500
1110
1510
4000
5540
ENDCHAR
STARTCHAR uFFFFB
ENCODING 1048571
SWIDTH 578 0
DWIDTH 5 0
BBX 6 6 0 0
BITMAP
7B80
E6D0
F6D0
FAD0
FFD0
7F80
ENDCHAR
STARTCHAR uFFFFC
ENCODING 1048572
SWIDTH 578 0
DWIDTH 5 0
BBX 6 6 0 0
BITMAP
6A80
D990
F6D0
FBD0
FFD0
7F80
ENDCHAR
STARTCHAR uFFFFD
ENCODING 1048573
SWIDTH 578 0
DWIDTH 5 0
BBX 6 6 0 0
BITMAP
7B80
D1D0
E6D0
F6D0
FBD0
7B80
ENDCHAR
STARTCHAR uFFFFE
ENCODING 1048574
SWIDTH 578 0
DWIDTH 5 0
BBX 6 6 0 0
BITMAP
6E40
E690
E790
EAD0
FFD0
7F80
ENDCHAR
STARTCHAR uFFFFF
ENCODING 1048575
SWIDTH 578 0
DWIDTH 5 0
BBX 6 6 0 0
BITMAP
5540
6E00
1910
0910
4400
5540
ENDCHAR
STARTCHAR .notdef
ENCODING -1
SWIDTH 1000 0
DWIDTH 9 0
BBX 1 1 0 0
BITMAP
00
ENDCHAR
STARTCHAR glyph1
ENCODING -1
SWIDTH 0 0
DWIDTH 0 0
BBX 1 1 0 0
BITMAP
00
ENDCHAR
ENDFONT
